<svg xmlns="http://www.w3.org/2000/svg" viewBox="0 0 174.6976 46.8146" height="1000">
    <path id="t" d="M200.2075,192.7578q.2388.3-.12.66l-.48.36c-.2007,0-.33.0508-.39.15a.78.78,0,0,1-.39.27,3.52,3.52,0,0,0-.63.3295,2.9274,2.9274,0,0,1-1.05.27,25.6806,25.6806,0,0,0-4.26-.27q-2.34.0315-3.9.15a50.8086,50.8086,0,0,1,.42,5.7q.0594,3.0015-.03,6.09-.09,3.0907-.24,6.09-.15,3.0007-.15,5.7v1.0195a16.4688,16.4688,0,0,1-.48-2.22,7.6117,7.6117,0,0,1-.18-.75q-.06-.3288-.18-.75a60.1462,60.1462,0,0,1-.84-10.26,81.6935,81.6935,0,0,1,.66-10.5q-3.42.4812-6.6,1.02a43.9471,43.9471,0,0,0-6.3,1.56,4.9208,4.9208,0,0,1-.69.18,5.02,5.02,0,0,0-.69.18,2.2745,2.2745,0,0,0-.54-.42q-.2411-.1194-.3-.6a1.02,1.02,0,0,1,.36-1.05,12.644,12.644,0,0,0,.96-.87.38.38,0,0,0,.24-.3,4.504,4.504,0,0,1,.15-.48q.09-.2388.15-.45a.3668.3668,0,0,1,.24-.27,42.4292,42.4292,0,0,1,6.18-1.62,44.8586,44.8586,0,0,1,6.51-.72,38.9393,38.9393,0,0,1,6.48.3A27.4313,27.4313,0,0,1,200.2075,192.7578Z" transform="translate(-172.8229 -185.4827)"/>
    <path id="a" d="M214.3667,197.6177q.7792,1.921,1.47,4.14a25.3285,25.3285,0,0,1,.96,4.41,16.6572,16.6572,0,0,1,0,4.23,7.33,7.33,0,0,1-1.41,3.54,1.132,1.132,0,0,1-1.14.48.7494.7494,0,0,1-.42-.3,1.6558,1.6558,0,0,0-.48-.42,2.6428,2.6428,0,0,0-.51-.3,1.2591,1.2591,0,0,1-.51-.48,7.662,7.662,0,0,0-1.77.87q-.87.5706-1.77,1.17t-1.86,1.17a6.975,6.975,0,0,1-1.98.81,1.8008,1.8008,0,0,1-1.59-.09q-.51-.39-1.11-.87-.42-.36-.54-.45a1.5828,1.5828,0,0,1-.24-.75,12.2364,12.2364,0,0,1-.03-2.85,13.4389,13.4389,0,0,1,.69-3.09,9.1959,9.1959,0,0,1,6.12-6.12,2.3151,2.3151,0,0,1,1.11-.09,4.4675,4.4675,0,0,1,1.11.33,6.1692,6.1692,0,0,1,1.05.6q.5091.36.93.72l.96.78a3.8987,3.8987,0,0,0-.03-2.19,8.5034,8.5034,0,0,0-.99-2.22,10.86,10.86,0,0,0-1.5-1.89,4.8523,4.8523,0,0,0-1.62-1.14,10.7453,10.7453,0,0,0-5.49,1.41,23.0977,23.0977,0,0,0-4.71,3.6905.7971.7971,0,0,1-.27.18q-.1509.0607-.27.12a.504.504,0,0,1-.4205.06c-.12-.04-.1406-.16-.06-.36a8.6733,8.6733,0,0,1,1.44-3.45,12.7935,12.7935,0,0,1,2.52-2.67,16.376,16.376,0,0,1,3.06-1.92,15.2366,15.2366,0,0,1,3.18-1.14,1.5033,1.5033,0,0,1,.45-.15,3.6609,3.6609,0,0,1,.51-.03,1.3845,1.3845,0,0,1,.78.24q.36.24.84.54a12.6177,12.6177,0,0,1,1.2.69,5.353,5.353,0,0,1,1.0795.93,7.6227,7.6227,0,0,1,.72.96Q214.1263,197.1982,214.3667,197.6177Zm-2.04,10.68a4.3952,4.3952,0,0,0-1.11-1.44,5.0735,5.0735,0,0,0-1.71-.99,4.2167,4.2167,0,0,0-2.07-.15,4.9461,4.9461,0,0,0-2.25,1.08q-.36.7807-.72,1.71a10.8835,10.8835,0,0,0-.54,1.86,8.276,8.276,0,0,0-.15,1.86,4.3658,4.3658,0,0,0,.39,1.71,42.6594,42.6594,0,0,0,4.44-1.8q2.1607-1.02,3.72-1.8a1.4829,1.4829,0,0,0,.42-.6.597.597,0,0,0-.03-.42c-.06-.12-.1406-.2593-.24-.42A1.11,1.11,0,0,1,212.3267,208.2974Z" transform="translate(-172.8229 -185.4827)"/>
    <path id="o" d="M228.5439,197.9775l-1.02,1.02q.48-.0594,1.47-.27a9.4007,9.4007,0,0,1,1.95-.21,2.7222,2.7222,0,0,1,1.2.48,1.9441,1.9441,0,0,1,.6,1.38,17.6845,17.6845,0,0,0,.75,2.91,20.337,20.337,0,0,1,.78,2.91,6.5883,6.5883,0,0,1-.03,2.73,4.1319,4.1319,0,0,1-1.62,2.31,16.4642,16.4642,0,0,1-3.03,3.51,6.6454,6.6454,0,0,1-3.45,1.65,5.4615,5.4615,0,0,1-2.64-.33,3.6347,3.6347,0,0,1-2.1-1.77c-.12.081-.22.09-.3.03a2.0967,2.0967,0,0,1-.24-.21c-.0811-.08-.15-.1-.21-.06s-.11.02-.15-.06a1.5582,1.5582,0,0,1-.06-.48v-.24a33.84,33.84,0,0,1,.39-4.23,23.9942,23.9942,0,0,1,1.02-4.14,18.2164,18.2164,0,0,1,1.8-3.78,12.4814,12.4814,0,0,1,2.85-3.15,1.8855,1.8855,0,0,1,1.32-.24h.3A.6616.6616,0,0,1,228.5439,197.9775Zm-2.04,4.08c-.24-.04-.38-.12-.42-.24a.7156.7156,0,0,1,.03-.45q.0893-.27.24-.63a1.8674,1.8674,0,0,0,.15-.72,7.7767,7.7767,0,0,0-1.95,2.76,15.1273,15.1273,0,0,0-.99,3.33,17.2919,17.2919,0,0,0-.27,3.33q.03,1.62.15,2.82a5.3178,5.3178,0,0,0,.42,1.65,1.2446,1.2446,0,0,0,.9.75,2.5655,2.5655,0,0,0,1.74-.36,6.6044,6.6044,0,0,0,2.52-2.16,9.1137,9.1137,0,0,0,1.95-4.95,6.1518,6.1518,0,0,0-.09-2.19,2.825,2.825,0,0,0-1.53-2.01A10.3843,10.3843,0,0,0,226.5039,202.0576Z" transform="translate(-172.8229 -185.4827)"/>
    <path id="J" d="M274.6831,187.5977a.9091.9091,0,0,1-.39.27,1.68,1.68,0,0,0-.39.15,1.8821,1.8821,0,0,1-.6.24c-.2007.04-.4.0806-.6.12a2.9043,2.9043,0,0,0-.66.3,2.36,2.36,0,0,1-.84.3q-.78.1209-1.74.24t-2.04.24a74.5858,74.5858,0,0,1,2.22,7.14,46.4345,46.4345,0,0,1,1.29,7.2,24.4917,24.4917,0,0,1-.18,6.45,9.7675,9.7675,0,0,1-2.19,4.89,8.1321,8.1321,0,0,1-5.64,2.76,12.2656,12.2656,0,0,1-3.57-.18,25.1947,25.1947,0,0,1-3.75-.99,16.6926,16.6926,0,0,1-3.18-1.47,4.608,4.608,0,0,1-1.8-1.68,1.9391,1.9391,0,0,1-.0595-1.92,1.9436,1.9436,0,0,0,.24-.57.4475.4475,0,0,1,.42-.33,1.79,1.79,0,0,1,.81.09q.5091.15.81.27l.84-.18a19.31,19.31,0,0,0,4.62,1.83,15.4382,15.4382,0,0,0,4.68.51,5.9508,5.9508,0,0,0,1.86-.42,3.0892,3.0892,0,0,0,1.5-1.38,15.0662,15.0662,0,0,0,1.02-3.81,39.5782,39.5782,0,0,0,.48-5.61,49.8265,49.8265,0,0,0-.3-6.36,31.2765,31.2765,0,0,0-1.26-6.12q-1.86.1209-3.63.21a18.3685,18.3685,0,0,1-2.85-.03,15.5852,15.5852,0,0,1-1.74-.33,5.6068,5.6068,0,0,1-1.74-.81q-.3009.42-.54.72a.65.65,0,0,1-.48.3,2.04,2.04,0,0,1-.93-.99,5.172,5.172,0,0,0-.63-1.05.6348.6348,0,0,1-.12-.57q.0594-.3888.66-.45a19.91,19.91,0,0,1,2.46-.48q1.92-.3,4.41-.48,2.4888-.18,5.16-.12a22.0254,22.0254,0,0,1,4.83.6A11.2728,11.2728,0,0,1,274.6831,187.5977Z" transform="translate(-172.8229 -185.4827)"/>
    <path id="I" d="M283.2451,195.5776q.48.4812.39.78a.3038.3038,0,0,1-.39.24,10.8848,10.8848,0,0,0-1.71.15q-.9309.15-1.98.24a15.8609,15.8609,0,0,1-2.19.03,9.1329,9.1329,0,0,1-2.28-.42q-.4806-.48.03-.87a2.6079,2.6079,0,0,0,.81-1.17,1.3529,1.3529,0,0,1,.51-.75,1.8522,1.8522,0,0,1,.69-.27,6.4933,6.4933,0,0,1,1.65.27,9.8563,9.8563,0,0,0,1.65.33,9.31,9.31,0,0,1,1.68.33A2.1,2.1,0,0,1,283.2451,195.5776Zm-1.26,8.16q.36,1.3806.57,2.52t.3,2.19q.09,1.05.12,2.13t.03,2.34a.7564.7564,0,0,1-.27.51,1.7062,1.7062,0,0,0-.39.57,2.0415,2.0415,0,0,1-.39.66,3.0778,3.0778,0,0,1-.51.3,4.7516,4.7516,0,0,0-1.5,1.02,6.71,6.71,0,0,1-1.05-2.64,25.57,25.57,0,0,1-.36-3.12q-.09-1.62-.18-3.27a18.8489,18.8489,0,0,0-.45-3.21q-.18-.84.12-1.14a1.6931,1.6931,0,0,1,.66-.42,1.1781,1.1781,0,0,1,.93.18q.5091.301.99.6a1.9228,1.9228,0,0,0,.81.27A.6714.6714,0,0,1,281.9849,203.7378Z" transform="translate(-172.8229 -185.4827)"/>
    <path id="A" d="M302.187,197.6177q.7792,1.921,1.47,4.14a25.3285,25.3285,0,0,1,.9605,4.41,16.6572,16.6572,0,0,1,0,4.23,7.33,7.33,0,0,1-1.41,3.54,1.132,1.132,0,0,1-1.14.48.7494.7494,0,0,1-.42-.3,1.6545,1.6545,0,0,0-.48-.42,2.6428,2.6428,0,0,0-.51-.3,1.26,1.26,0,0,1-.51-.48,7.6594,7.6594,0,0,0-1.77.87q-.87.5706-1.77,1.17t-1.86,1.17a6.975,6.975,0,0,1-1.98.81,1.8006,1.8006,0,0,1-1.59-.09q-.5106-.39-1.11-.87-.42-.36-.54-.45a1.5812,1.5812,0,0,1-.24-.75,12.2364,12.2364,0,0,1-.03-2.85,13.4389,13.4389,0,0,1,.69-3.09,9.1959,9.1959,0,0,1,6.12-6.12,2.3155,2.3155,0,0,1,1.11-.09,4.4668,4.4668,0,0,1,1.11.33,6.1692,6.1692,0,0,1,1.05.6q.5091.36.93.72l.96.78a3.8988,3.8988,0,0,0-.03-2.19,8.5,8.5,0,0,0-.99-2.22,10.86,10.86,0,0,0-1.5-1.89,4.8523,4.8523,0,0,0-1.62-1.14,10.7453,10.7453,0,0,0-5.49,1.41,23.1,23.1,0,0,0-4.71,3.6905.7962.7962,0,0,1-.27.18q-.1509.0607-.27.12a.5038.5038,0,0,1-.42.06c-.12-.04-.1407-.16-.06-.36a8.6733,8.6733,0,0,1,1.44-3.45,12.7961,12.7961,0,0,1,2.52-2.67,16.376,16.376,0,0,1,3.06-1.92,15.2366,15.2366,0,0,1,3.18-1.14,1.5042,1.5042,0,0,1,.45-.15,3.6615,3.6615,0,0,1,.51-.03,1.3842,1.3842,0,0,1,.78.24q.36.24.84.54a12.6177,12.6177,0,0,1,1.2.69,5.3562,5.3562,0,0,1,1.08.93,7.6312,7.6312,0,0,1,.72.96Q301.9466,197.1982,302.187,197.6177Zm-2.04,10.68a4.3952,4.3952,0,0,0-1.11-1.44,5.0735,5.0735,0,0,0-1.71-.99,4.2167,4.2167,0,0,0-2.07-.15,4.9461,4.9461,0,0,0-2.25,1.08q-.36.7807-.72,1.71a10.8835,10.8835,0,0,0-.54,1.86,8.2818,8.2818,0,0,0-.15,1.86,4.3658,4.3658,0,0,0,.39,1.71,42.67,42.67,0,0,0,4.44-1.8q2.1606-1.02,3.72-1.8a1.4818,1.4818,0,0,0,.42-.6.597.597,0,0,0-.03-.42c-.06-.12-.1406-.2593-.24-.42A1.11,1.11,0,0,1,300.147,208.2974Z" transform="translate(-172.8229 -185.4827)"/>
    <path id="N" d="M313.0527,207.1577q1.02-1.02,2.0684-2.19t2.1914-2.25a22.9147,22.9147,0,0,1,2.34-1.95,12.0557,12.0557,0,0,1,2.52-1.41.9651.9651,0,0,1,.57-.06.9476.9476,0,0,0,.57-.06h.84a1.04,1.04,0,0,1,.66.24,3.8913,3.8913,0,0,1,1.35,1.53,12.8321,12.8321,0,0,1,.8691,2.19,4.377,4.377,0,0,1,.2715,1.26,4.5,4.5,0,0,0,.33,1.38c.2383.76.51,1.53.8086,2.31a4.7455,4.7455,0,0,1,.33,2.25,1.66,1.66,0,0,1-.18.51c-.08.1406-.18.31-.3008.51a3.2873,3.2873,0,0,1-.42.6,2.4354,2.4354,0,0,1-.6.54,1.6791,1.6791,0,0,0-.3887.39,1.2229,1.2229,0,0,1-.57.3295,9.2746,9.2746,0,0,1-1.2012-2.46,27.7243,27.7243,0,0,1-.7187-2.76q-.3018-1.44-.541-2.94t-.6-3.06q-.12-.419-.75-.48a2.5287,2.5287,0,0,0-1.44.39,7.2789,7.2789,0,0,0-1.7109,1.41,9.7192,9.7192,0,0,0-1.6192,2.46q-.48,1.08-.9,2.25-.4218,1.17-.93,2.34a17.613,17.613,0,0,1-1.2011,2.28,9.92,9.92,0,0,1-1.6485,2.01c-.2011.2-.3418.22-.42.0595a1.0654,1.0654,0,0,0-.6016-.42c-.24-.08-.3691-.1592-.3886-.24-.0215-.08-.09-.32-.211-.72q-.36-1.26-.75-2.88t-.84-3.42q-.4512-1.8-.93-3.63-.48-1.83-.9609-3.45l-.3594-1.08a1.0379,1.0379,0,0,1,.4492-.42,4.3019,4.3019,0,0,1,.6914-.3,1.0722,1.0722,0,0,1,.7793.0595,1.8145,1.8145,0,0,0,.66.18,1.4256,1.4256,0,0,1,1.17.84,8.5144,8.5144,0,0,1,.8691,2.13,21.3224,21.3224,0,0,1,.57,2.82Q312.9923,205.7776,313.0527,207.1577Z" transform="translate(-172.8229 -185.4827)"/>
    <path id="G" d="M342.9,195.5776q.54,1.44,1.32,4.26.7792,2.8213,1.5,6.12.7207,3.3,1.26,6.66a37.6354,37.6354,0,0,1,.54,5.88,20.0106,20.0106,0,0,1-.39,3.93,7.4268,7.4268,0,0,1-2.19,3.75q-.9594.8994-2.31,2.19a23.9823,23.9823,0,0,1-2.91,2.37q-.7193.4789-1.47.9a8.6744,8.6744,0,0,1-1.47.66q-.3016-.72-.15-.93a3.1131,3.1131,0,0,0,.33-.81,7,7,0,0,0,.27-1.5,2.012,2.012,0,0,1,.57-1.38q.5991-.54,1.62-1.38t1.9795-1.77a19.8437,19.8437,0,0,0,1.6807-1.8295,3.7255,3.7255,0,0,0,.84-1.62,21.7741,21.7741,0,0,0,.12-2.37,24.0121,24.0121,0,0,0-.15-2.64q-.1509-1.35-.39-2.7a19.7934,19.7934,0,0,0-.6006-2.49l-.1192-.36a9.2883,9.2883,0,0,1-1.53,2.13,6.466,6.466,0,0,1-1.83,1.29,3.6558,3.6558,0,0,1-.96.33q-.48.09-.96.21a6.0991,6.0991,0,0,0-.96.33,2.1458,2.1458,0,0,1-.84.21,2.7835,2.7835,0,0,1-1.53-.66,2.1816,2.1816,0,0,1-.87-1.38,3.8013,3.8013,0,0,0-.24-.87,3.7371,3.7371,0,0,1-.24-.93q-.12-1.7394-.06-3.84a33.84,33.84,0,0,1,.39-4.23,24.2784,24.2784,0,0,1,.99-4.08,13.0867,13.0867,0,0,1,1.68-3.39q.42-.48.9-.93a1.6856,1.6856,0,0,1,1.2-.45,1.2547,1.2547,0,0,0,.87-.36,1.046,1.046,0,0,1,.87-.3,6.098,6.098,0,0,1,1.8594.51A3.015,3.015,0,0,1,342.9,195.5776Zm-2.04,4.74q-.12-.8394-.3-1.74t-.4794-.96a.6915.6915,0,0,0-.45.03c-.1407.06-.25.1108-.33.15a3.0734,3.0734,0,0,0-1.41,1.83,22.9738,22.9738,0,0,0-1.08,3.42q-.45,1.89-.6894,3.66a9.581,9.581,0,0,0-.12,2.49,6.203,6.203,0,0,0,.48,1.71,1.61,1.61,0,0,0,1.1406.99,1.4567,1.4567,0,0,0,.7793-.15,6.2615,6.2615,0,0,0,1.1406-.6q.5991-.39,1.2-.84a9.1454,9.1454,0,0,0,.96-.81c.1191-.12.1689-.4893.1494-1.11s-.08-1.37-.18-2.25-.2207-1.8394-.36-2.88S341.0205,201.2383,340.86,200.3174Z" transform="translate(-172.8229 -185.4827)"/>
</svg>